#N canvas 0 22 1316 561 12;
#X text 17 11 Arguments:;
#X text 37 51 \$2 = Parameter Name;
#X text 17 71 Example:;
#X obj 342 232 route \$1;
#X obj 342 474 send \$2;
#X obj 342 445 spigot 0;
#X obj 342 290 t f f;
#X obj 395 387 loadbang;
#X obj 342 203 receive param;
#X obj 342 261 change -1e+37;
#X msg 395 416 1;
#X text 442 203 <- Receive the parameters' value;
#X text 442 261 <- eliminate repeated numbers;
#X text 412 232 <- Route the value of your parameter number;
#X text 342 133 param.get ––––––––––––––––––––––––––––––––––––––––––––––––––
;
#X msg 374 319 set \$1;
#X obj 374 348 send \$2-r;
#X text 444 338 <- Use the "set" message to only change the displayed
value without any output.;
#X text 37 31 \$1 = Parameter Number/Index;
#X obj 12 334 pack f \$1;
#X msg 12 363 param set \$2 \$1;
#X obj 12 295 spigot 0;
#X obj 65 242 loadbang;
#X msg 65 266 1;
#X obj 12 392 send camomile;
#X text 402 474 <- Send to patch variable;
#X obj 12 203 receive \$2-s;
#X text 102 203 <- Receive value from GUI;
#X text 82 295 <- ???;
#X text 412 445 <- ???;
#X text 92 334 <- Append parameter index;
#X text 132 373 <- Set parameter value;
#X text 12 133 param.set ––––––––––––––––––––––––––––
;
#X text 37 91 gui.link 1 \$0-volume;
#X obj 902 230 receive \$2-s;
#X obj 902 284 spigot;
#X obj 902 313 send \$2;
#X obj 941 259 receive prototype;
#X text 962 313 <- Send tu variable;
#X text 142 223 Example: [r \$0-volume-s];
#X text 484 378 Example: [s \$0-volume-r];
#X text 442 494 Example: [s \$0-volume];
#X text 992 333 Example: [s \$0-volume];
#X text 939 203 Example: [r \$0-volume-s];
#X text 899 183 // Receive value from GUI;
#X text 1071 259 <- Enable prototype mode;
#X text 899 133 Prototype mode ––––––––––––––––––––––––––––
;
#X text 899 153 For enabling testing in Pd without Camomile.;
#X text 12 153 Set the plug-in's parameter with the GUI.;
#X text 342 153 Receive the plug-in's parameter and link it to the
GUI and the patche variable.;
#X connect 3 0 9 0;
#X connect 5 0 4 0;
#X connect 6 0 5 0;
#X connect 6 1 15 0;
#X connect 7 0 10 0;
#X connect 8 0 3 0;
#X connect 9 0 6 0;
#X connect 10 0 5 1;
#X connect 15 0 16 0;
#X connect 19 0 20 0;
#X connect 20 0 24 0;
#X connect 21 0 19 0;
#X connect 22 0 23 0;
#X connect 23 0 21 1;
#X connect 26 0 21 0;
#X connect 34 0 35 0;
#X connect 35 0 36 0;
#X connect 37 0 35 1;
