#N canvas 0 142 504 404 12;
#X obj 12 31 inlet;
#X obj 12 65 unpack f f;
#X text 12 11 (I1) List: Note \, Velocity;
#X text 92 65 <- unpack list;
#X floatatom 12 129 5 0 0 1 Note - - 0;
#X obj 12 152 mtof;
#X floatatom 12 176 5 0 0 1 Frequency - - 0;
#X text 52 152 <- MIDI to frequency;
#X obj 12 239 osc~;
#X obj 304 305 *~;
#X obj 289 134 > 0;
#X msg 272 202 0 100;
#X obj 322 236 vline~;
#X msg 322 202 1 10;
#X text 362 202 <- 10 ms Attack;
#X text 142 202 100 ms Release ->;
#X obj 289 168 select 0 1;
#X text 329 138 <– Gate;
#X text 372 236 <– Envelope;
#X obj 304 339 outlet~;
#X text 304 359 (O1) Output;
#X text 334 305 <- VCA;
#X text 52 239 <- sinewave oscillator;
#X connect 0 0 1 0;
#X connect 1 0 4 0;
#X connect 1 1 10 0;
#X connect 4 0 5 0;
#X connect 5 0 6 0;
#X connect 6 0 8 0;
#X connect 8 0 9 0;
#X connect 9 0 19 0;
#X connect 10 0 16 0;
#X connect 11 0 12 0;
#X connect 12 0 9 1;
#X connect 13 0 12 0;
#X connect 16 0 11 0;
#X connect 16 1 13 0;
