#N canvas 74 22 1043 703 12;
#X declare -path ./abs;
#X obj 10 10 cnv 15 200 220 empty empty empty 20 12 0 14 #7c7c7c #404040
0;
#X obj 36 158 hsl 128 19 0 1 0 0 volume-s volume-r volume 0 -8 0 14
#000000 #ffffff #ffffff 0 1;
#X floatatom 328 243 5 0 0 0 - - - 0;
#X floatatom 328 299 5 0 0 0 - - - 0;
#X text 218 157 <- volume has a range from 0 to 1;
#X obj 556 430 *~;
#X obj 624 401 line~;
#X obj 556 576 dac~ 1 2;
#X obj 23 328 declare -path ./abs;
#X text 23 298 // Declare the abstractions folder path;
#X obj 41 599 tgl 19 0 empty empty Prototype\\\ Mode 0 -10 0 12 #00ff04
#000000 #000000 0 1;
#X obj 41 623 send prototype;
#X text 23 538 Enable protoype mode to test out the patch without the
need to load Camomile in your DAW.;
#X obj 624 377 pack f 20;
#X text 626 576 <– Audio Output;
#X obj 42 402 gui.link 1 parameter-1;
#X obj 42 426 gui.link 2 parameter-2;
#X obj 42 450 gui.link 3 parameter-3;
#X obj 42 504 gui.link 5 pan;
#X obj 42 480 gui.link 4 volume;
#X obj 328 322 s volume-r;
#X obj 328 219 r volume-s;
#X text 328 197 Send symbol: volume-s;
#X text 328 277 Receive symbol: volume-r;
#X obj 683 488 line~;
#X obj 683 464 pack f 20;
#N canvas 257 303 330 314 panning 0;
#X obj 50 90 sig~ 1;
#X obj 50 134 -~;
#X obj 50 168 sqrt~;
#X obj 12 207 *~;
#X obj 182 207 *~;
#X obj 12 31 inlet~;
#X obj 200 31 inlet~;
#X obj 12 241 outlet~;
#X obj 182 241 outlet~;
#X obj 200 168 sqrt~;
#X text 12 11 (I1) Input;
#X text 200 11 (I2) Panning;
#X text 80 134 <– Invert;
#X text 12 261 (O1) Output Left;
#X text 182 261 (O2) Output Right;
#X connect 0 0 1 0;
#X connect 1 0 2 0;
#X connect 2 0 3 1;
#X connect 3 0 7 0;
#X connect 4 0 8 0;
#X connect 5 0 3 0;
#X connect 5 0 4 0;
#X connect 6 0 1 1;
#X connect 6 0 9 0;
#X connect 9 0 4 1;
#X restore 556 517 pd panning;
#X text 683 420 P5: Panning (0 to 1);
#X text 624 333 P4: Volume (0 to 1);
#X text 694 377 <– smooth value 20 ms;
#X text 23 358 Link GUI with plug-in parameter #1 with the variable
"volume";
#X obj 36 38 hsl 128 19 0 1 0 0 parameter-1-s parameter-1-r parameter\\\ 1
0 -8 0 14 #000000 #ffffff #ffffff 0 1;
#X obj 36 78 hsl 128 19 0 1 0 0 parameter-2-s parameter-2-r parameter\\\ 2
0 -8 0 14 #000000 #ffffff #ffffff 0 1;
#X obj 36 118 hsl 128 19 0 1 0 0 parameter-3-s parameter-3-r parameter\\\ 3
0 -8 0 14 #000000 #ffffff #ffffff 0 1;
#X obj 36 198 hsl 128 19 0 1 0 0 pan-s pan-r pan 0 -8 0 14 #000000
#ffffff #ffffff 0 1;
#X obj 624 353 r volume;
#X obj 683 440 r pan;
#X obj 808 34 r parameter-1;
#X obj 808 58 * 127;
#X obj 808 92 mtof;
#X obj 808 126 osc~;
#X obj 654 213 sig~ 1;
#X obj 654 247 -~;
#X obj 808 160 +~ 1;
#X obj 808 184 /~ 2;
#X obj 750 228 *~;
#X obj 690 155 pack f 20;
#X obj 690 179 line~;
#X obj 690 131 r parameter-2;
#X obj 556 286 *~;
#X obj 556 162 adc~ 1;
#X text 848 170 <– Bipolar to unipolar;
#X text 848 190 (-1 to 1) to (0 to 1);
#X text 556 142 // Audio Input;
#X text 690 111 P2: LFO Amount;
#X text 808 14 P1: LFO Rate;
#X text 586 286 <– Ring Modulation;
#X obj 232 402 loadbang;
#X msg 232 426 \; parameter-1-r 0.5 \; parameter-2-r 0.5 \; parameter-3-r
0.5 \; volume-r 1 \; pan-r 0.5 \;;
#X text 302 402 <– initiliaze parameters;
#X connect 3 0 20 0;
#X connect 5 0 26 0;
#X connect 6 0 5 1;
#X connect 10 0 11 0;
#X connect 13 0 6 0;
#X connect 21 0 2 0;
#X connect 24 0 26 1;
#X connect 25 0 24 0;
#X connect 26 0 7 0;
#X connect 26 1 7 1;
#X connect 35 0 13 0;
#X connect 36 0 25 0;
#X connect 37 0 38 0;
#X connect 38 0 39 0;
#X connect 39 0 40 0;
#X connect 40 0 43 0;
#X connect 41 0 42 0;
#X connect 42 0 49 1;
#X connect 43 0 44 0;
#X connect 44 0 45 1;
#X connect 45 0 42 1;
#X connect 46 0 47 0;
#X connect 47 0 45 0;
#X connect 48 0 46 0;
#X connect 49 0 5 0;
#X connect 50 0 49 0;
#X connect 57 0 58 0;
#X coords 0 -1 1 1 200 220 2 10 10;
