#N canvas 0 22 765 563 12;
#X declare -path ./abs;
#X obj 10 10 cnv 15 200 200 empty empty empty 20 12 0 14 #606060 #404040
0;
#X obj 46 88 hsl 128 19 0 1 0 0 \$0-volume-s \$0-volume-r volume 80
-8 0 14 #000000 #ffffff #ffffff 0 1;
#X floatatom 238 163 5 0 0 0 - - - 0;
#X floatatom 238 219 5 0 0 0 - - - 0;
#X text 238 197 Receive symbol: \$0-volume-r;
#X text 238 117 Send symbol: \$0-volume-s;
#X text 218 87 <- volume has a range from 0 to 1;
#X obj 238 139 r \$0-volume-s;
#X obj 238 242 s \$0-volume-r;
#X obj 505 139 osc~ 440;
#X obj 505 242 *~;
#X msg 622 190 \$1 20;
#X obj 622 213 line~;
#X obj 505 305 dac~ 1 2;
#X obj 23 328 declare -path ./abs;
#X text 23 298 // Declare the abstractions folder path;
#X obj 622 143 r \$0-volume;
#X obj 22 398 gui.link 1 \$0-volume;
#X text 23 358 Link GUI with plug-in parameter #1 with the variable
"\$0-volume";
#X floatatom 622 167 5 0 1 0 - - - 0;
#X obj 41 479 tgl 19 0 empty empty Prototype\ Mode 0 -10 0 12 #00ff04
#000000 #000000 0 1;
#X obj 41 503 send prototype;
#X text 23 428 Enable protoype mode to test out the patch without the
need to load Camomile in your DAW.;
#X connect 3 0 8 0;
#X connect 7 0 2 0;
#X connect 9 0 10 0;
#X connect 10 0 13 0;
#X connect 10 0 13 1;
#X connect 11 0 12 0;
#X connect 12 0 10 1;
#X connect 16 0 19 0;
#X connect 19 0 11 0;
#X connect 20 0 21 0;
#X coords 0 -1 1 1 200 200 2 10 10;
